<?xml version="1.0" standalone="no"?><svg xmlns="http://www.w3.org/2000/svg" viewBox="0 0 1440 320"><path fill="#83bca9" fill-opacity="1" d="M0,32L7.5,32C15,32,30,32,45,53.3C60,75,75,117,90,128C105,139,120,117,135,133.3C150,149,165,203,180,224C195,245,210,235,225,224C240,213,255,203,270,213.3C285,224,300,256,315,256C330,256,345,224,360,181.3C375,139,390,85,405,53.3C420,21,435,11,450,5.3C465,0,480,0,495,48C510,96,525,192,540,213.3C555,235,570,181,585,149.3C600,117,615,107,630,101.3C645,96,660,96,675,106.7C690,117,705,139,720,154.7C735,171,750,181,765,197.3C780,213,795,235,810,213.3C825,192,840,128,855,117.3C870,107,885,149,900,149.3C915,149,930,107,945,85.3C960,64,975,64,990,80C1005,96,1020,128,1035,138.7C1050,149,1065,139,1080,144C1095,149,1110,171,1125,181.3C1140,192,1155,192,1170,192C1185,192,1200,192,1215,181.3C1230,171,1245,149,1260,165.3C1275,181,1290,235,1305,234.7C1320,235,1335,181,1350,144C1365,107,1380,85,1395,101.3C1410,117,1425,171,1433,197.3L1440,224L1440,320L1432.5,320C1425,320,1410,320,1395,320C1380,320,1365,320,1350,320C1335,320,1320,320,1305,320C1290,320,1275,320,1260,320C1245,320,1230,320,1215,320C1200,320,1185,320,1170,320C1155,320,1140,320,1125,320C1110,320,1095,320,1080,320C1065,320,1050,320,1035,320C1020,320,1005,320,990,320C975,320,960,320,945,320C930,320,915,320,900,320C885,320,870,320,855,320C840,320,825,320,810,320C795,320,780,320,765,320C750,320,735,320,720,320C705,320,690,320,675,320C660,320,645,320,630,320C615,320,600,320,585,320C570,320,555,320,540,320C525,320,510,320,495,320C480,320,465,320,450,320C435,320,420,320,405,320C390,320,375,320,360,320C345,320,330,320,315,320C300,320,285,320,270,320C255,320,240,320,225,320C210,320,195,320,180,320C165,320,150,320,135,320C120,320,105,320,90,320C75,320,60,320,45,320C30,320,15,320,8,320L0,320Z"></path></svg>